<?xml version="1.0" encoding="UTF-8"?>
<svg xmlns="http://www.w3.org/2000/svg" width="1024" height="1024" viewBox="0 0 1024 1024" role="img" aria-label="DNH">
  <defs>
    <linearGradient id="bg" x1="160" y1="80" x2="890" y2="940" gradientUnits="userSpaceOnUse">
      <stop offset="0" stop-color="#167394"/>
      <stop offset="0.52" stop-color="#157293"/>
      <stop offset="1" stop-color="#073A4B"/>
    </linearGradient>
    <radialGradient id="glow" cx="50%" cy="28%" r="72%">
      <stop offset="0" stop-color="#FFFFFF" stop-opacity="0.24"/>
      <stop offset="0.46" stop-color="#FFFFFF" stop-opacity="0.07"/>
      <stop offset="1" stop-color="#FFFFFF" stop-opacity="0"/>
    </radialGradient>
    <filter id="shadow" x="-20%" y="-20%" width="140%" height="140%">
      <feDropShadow dx="0" dy="18" stdDeviation="22" flood-color="#031A24" flood-opacity="0.24"/>
    </filter>
  </defs>

  <rect width="1024" height="1024" rx="224" fill="url(#bg)"/>
  <rect width="1024" height="1024" rx="224" fill="url(#glow)"/>

  <g transform="translate(0 0) scale(1)" filter="url(#shadow)">
    <circle cx="512" cy="442" r="292" fill="#FFFFFF" opacity="0.08"/>
    <path d="M267 282c0-18 15-33 33-33h79c18 0 33 15 33 33v281c0 18-15 33-33 33h-79c-18 0-33-15-33-33V282Z" fill="#FFFFFF" opacity="0.94"/>
    <path d="M442 214c0-18 15-33 33-33h79c18 0 33 15 33 33v349c0 18-15 33-33 33h-79c-18 0-33-15-33-33V214Z" fill="#FFFFFF" opacity="0.98"/>
    <path d="M617 143c0-18 15-33 33-33h79c18 0 33 15 33 33v420c0 18-15 33-33 33h-79c-18 0-33-15-33-33V143Z" fill="#FFFFFF"/>

    <rect x="252" y="642" width="520" height="34" rx="17" fill="#FC8502"/>
    <path d="M319 724c57 51 122 76 193 76 72 0 137-25 193-76" fill="none" stroke="#FC8502" stroke-width="30" stroke-linecap="round" opacity="0.92"/>

    <text x="512" y="890" text-anchor="middle"
      font-family="Arial, Helvetica, sans-serif" font-size="178" font-weight="800"
      letter-spacing="8" fill="#FFFFFF">DNH</text>
  </g>
</svg>