<?xml version="1.0" encoding="utf-8"?>
<!-- Generator: Adobe Illustrator 27.4.0, SVG Export Plug-In . SVG Version: 6.00 Build 0)  -->
<svg version="1.1" id="Layer_1" xmlns="http://www.w3.org/2000/svg" xmlns:xlink="http://www.w3.org/1999/xlink" x="0px" y="0px"
	 viewBox="0 0 2172 724" style="enable-background:new 0 0 2172 724;" xml:space="preserve">
<style type="text/css">
	.st0{fill:#FFFFFF;}
	.st1{font-family:'Montserrat-Bold';}
	.st2{font-size:154.1223px;}
	.st3{letter-spacing:9.4;}
	.st4{fill:#FC8502;}
</style>
<g>
	<text transform="matrix(0.8479 0 0 1 690.0176 485.0234)" class="st0 st1 st2 st3">MOHAMADHASANI</text>
</g>
<g>
	<text transform="matrix(0.8479 0 0 1 690.0176 296.7144)" class="st0 st1 st2 st3">DR</text>
</g>
<path class="st0" d="M540.8,485h83.9c2.1,0,3.8-1.7,3.8-3.8V192.7c0-3.4-3.9-5.1-6.3-2.8l-83.9,80.6c-0.8,0.7-1.2,1.7-1.2,2.8v207.9
	C537.1,483.3,538.8,485,540.8,485z"/>
<path class="st4" d="M175.6,482.8c0,1.3,1.7,2.3,3.8,2.3h83.9c2.1,0,3.8-1,3.8-2.3V311.6c0-2-3.9-3-6.3-1.6l-85,73.2"/>
<path class="st0" d="M534,345.1l-59.3,57.7c-1.5,1.4-3.9,1.4-5.3-0.2L268.1,195.9c-2.3-2.4-0.8-6.4,2.5-6.4l115.5,0.1
	c1,0,2,0.4,2.8,1.2l145,149C535.4,341.3,535.4,343.7,534,345.1z"/>
<rect x="699.2" y="529.3" class="st4" width="1422.7" height="6.3"/>
</svg>
